<?xml version="1.0" standalone="no"?>
<!DOCTYPE svg PUBLIC "-//W3C//DTD SVG 20010904//EN"
 "http://www.w3.org/TR/2001/REC-SVG-20010904/DTD/svg10.dtd">
<svg version="1.0" xmlns="http://www.w3.org/2000/svg"
 width="512.000000pt" height="512.000000pt" viewBox="0 0 512.000000 512.000000"
 preserveAspectRatio="xMidYMid meet">

<g transform="translate(0.000000,512.000000) scale(0.100000,-0.100000)"
fill="#000000" stroke="none">
<path d="M2885 4257 c-13 -10 -16 -21 -11 -40 3 -15 12 -27 18 -27 9 0 9 3 0
12 -16 16 -15 45 1 51 6 2 21 0 32 -6 18 -9 19 -9 6 6 -16 20 -22 21 -46 4z"/>
<path d="M1988 4253 c138 -2 366 -2 505 0 138 1 25 2 -253 2 -278 0 -391 -1
-252 -2z"/>
<path d="M1717 4243 c-9 -9 -9 -81 1 -86 4 -3 7 17 7 44 0 27 0 49 -1 49 0 0
-4 -3 -7 -7z"/>
<path d="M2926 4202 c-5 -8 29 -52 39 -52 10 0 -8 29 -21 34 -9 3 -12 10 -9
16 3 5 4 10 1 10 -3 0 -7 -4 -10 -8z"/>
<path d="M3680 3859 c-37 -15 -58 -38 -65 -70 -4 -16 -15 -35 -24 -41 -23 -16
-41 -51 -41 -77 0 -11 -9 -38 -21 -60 -18 -36 -19 -44 -7 -77 7 -20 26 -48 42
-61 l30 -25 16 83 c18 99 24 109 54 109 34 0 44 65 16 95 -19 20 -19 22 -3 58
15 32 22 37 50 37 23 0 36 -6 40 -17 4 -10 11 -21 16 -24 4 -3 0 -26 -11 -50
-32 -70 -34 -104 -11 -131 14 -16 19 -18 15 -6 -2 9 2 22 10 29 9 7 22 25 30
41 12 23 12 33 3 51 -7 12 -12 37 -10 55 4 61 -69 106 -129 81z"/>
<path d="M2066 3738 c-2 -7 -16 -44 -29 -83 -14 -38 -42 -122 -63 -185 -21
-63 -41 -119 -45 -125 -4 -5 -10 -27 -14 -48 -4 -20 -11 -40 -16 -43 -5 -3 -9
-14 -9 -25 0 -14 7 -19 29 -19 34 0 46 13 56 60 4 19 11 40 15 45 4 6 10 22
14 38 l6 27 98 0 98 0 24 -72 c30 -92 33 -95 76 -100 27 -3 33 -1 29 10 -3 8
-20 58 -37 111 -17 53 -34 101 -38 106 -4 6 -11 26 -15 45 -4 19 -11 40 -15
45 -4 6 -11 26 -15 45 -4 19 -10 40 -14 45 -3 6 -15 37 -26 70 -21 60 -21 60
-63 63 -28 2 -44 -1 -46 -10z m54 -73 c0 -8 16 -61 35 -117 19 -57 35 -106 35
-110 0 -5 -36 -8 -81 -8 l-81 0 7 32 c4 18 11 39 16 48 14 26 49 143 49 163 0
10 5 15 10 12 6 -3 10 -13 10 -20z"/>
<path d="M4025 3509 c-3 -8 -18 -57 -33 -109 l-28 -95 -100 -3 c-54 -1 -134 4
-177 11 -43 7 -80 10 -83 5 -13 -21 -16 -118 -4 -133 11 -13 -10 -15 -188 -15
l-201 0 -6 -44 c-4 -25 -4 -49 0 -55 4 -7 98 -11 286 -11 l279 0 0 -820 0
-820 -162 0 -163 0 6 147 c4 82 12 206 18 277 7 71 10 139 7 151 -5 21 -13 22
-118 28 -62 3 -114 4 -115 3 -2 -2 -8 -27 -14 -57 -6 -30 -17 -83 -24 -119 -8
-36 -21 -98 -29 -139 -11 -54 -14 -102 -9 -182 l6 -109 -806 0 -807 0 0 820 0
820 40 0 40 0 0 55 0 55 -87 0 c-95 -1 -141 -18 -181 -71 -42 -54 -42 -57 -42
-954 0 -473 0 -881 0 -907 l0 -48 -81 0 c-80 0 -81 0 -74 23 21 67 20 67 -24
67 -45 0 -51 -13 -31 -64 9 -26 9 -26 -39 -26 -27 0 -61 6 -75 14 -18 9 -38
11 -61 6 -23 -5 -36 -4 -39 4 -2 6 -5 3 -5 -6 -1 -16 -13 -18 -101 -18 -55 0
-100 3 -100 8 0 4 -13 14 -29 24 -29 16 -29 16 -35 -8 -6 -21 -12 -23 -78 -26
-46 -2 -73 -7 -76 -15 -3 -10 414 -13 2063 -13 1649 0 2066 3 2063 13 -3 9
-44 13 -149 15 l-144 3 3 44 4 45 -182 0 c-170 0 -182 1 -174 18 13 25 17
1699 4 1720 -8 15 -9 15 -10 -2 0 -10 -13 -46 -29 -80 -43 -87 -61 -136 -61
-158 0 -17 -3 -18 -15 -8 -9 8 -15 30 -15 59 -1 36 -3 42 -11 29 -16 -28 -29
-21 -29 13 0 18 13 53 29 79 41 66 68 175 49 197 -11 15 -11 16 4 10 21 -7 26
0 41 61 9 34 19 50 37 59 26 12 32 25 70 151 16 53 19 77 11 85 -7 7 -12 6
-16 -4z m-674 -1809 c0 -47 4 -129 8 -183 l6 -97 -64 0 -63 0 6 33 c4 17 11
70 16 116 10 93 67 252 82 229 4 -7 8 -51 9 -98z m-121 -359 c0 -19 -18 -31
-46 -31 -14 0 -20 31 -7 43 3 4 17 7 30 7 16 0 23 -6 23 -19z m208 -8 c-2 -11
-14 -19 -31 -21 -29 -4 -30 -2 -21 22 9 23 56 21 52 -1z"/>
<path d="M3352 2738 c-20 -20 -15 -48 9 -48 13 0 23 -10 30 -30 6 -16 15 -27
20 -24 5 3 9 -14 9 -37 l0 -42 27 29 c30 32 36 83 13 106 -15 14 -84 58 -92
58 -2 0 -9 -5 -16 -12z"/>
<path d="M865 2711 c-38 -23 -100 -137 -81 -148 7 -5 23 -23 36 -40 13 -18 29
-33 35 -33 14 0 40 71 28 79 -4 3 -13 17 -20 31 -10 24 -7 29 27 58 56 46 79
41 94 -21 5 -22 0 -36 -24 -67 -38 -48 -39 -80 -1 -101 l29 -17 11 38 c17 58
14 161 -6 190 -37 54 -76 63 -128 31z"/>
<path d="M668 2538 c-77 -26 -92 -186 -24 -253 6 -6 33 -20 59 -30 41 -15 53
-16 86 -5 l38 12 -13 37 c-7 20 -13 45 -14 56 0 11 -11 32 -24 46 -13 14 -37
52 -53 85 -27 57 -30 60 -55 52z"/>
<path d="M3166 2249 c3 -6 19 -9 35 -5 15 3 31 1 34 -4 3 -6 18 -10 33 -9 26
0 25 1 -8 14 -44 17 -104 19 -94 4z"/>
<path d="M1060 1880 l0 -370 25 0 25 0 0 370 0 370 -25 0 -25 0 0 -370z"/>
<path d="M1190 1880 l0 -370 25 0 25 0 0 370 0 370 -25 0 -25 0 0 -370z"/>
<path d="M797 2048 c-11 -30 -17 -92 -20 -203 -4 -147 -6 -165 -31 -218 -25
-56 -49 -152 -62 -253 -6 -48 -5 -52 17 -57 13 -4 26 -3 30 1 3 4 21 48 39 97
18 50 38 104 45 120 10 24 56 149 78 215 9 26 6 -93 -3 -140 -5 -25 -6 -107
-3 -182 l6 -138 29 0 c24 0 28 4 28 28 1 27 5 79 36 392 9 91 19 204 21 253
l5 87 -36 0 c-19 0 -58 9 -86 20 -28 11 -57 20 -64 20 -7 0 -20 -19 -29 -42z"/>
</g>
</svg>
